<svg id="Réteg_2" data-name="Réteg 2" xmlns="http://www.w3.org/2000/svg" viewBox="36 244 522 108"><defs><style>.cls-1{fill:#17232d;}.cls-2{fill:#70744f;}.cls-3{fill:#bac265;}.cls-4{fill:#84b195;}.cls-5{fill:#fcea8b;}</style></defs><path class="cls-1" d="M162.38,322.12V272.44H175.5V289l15-16.54h17.24l-20.65,22.43,21.29,27.25H192l-13.63-17.88-2.91,3.19v14.69Z"/><path class="cls-1" d="M229,323a20.72,20.72,0,0,1-10-2.37,17.67,17.67,0,0,1-6.85-6.57,20.12,20.12,0,0,1,0-19.3,17.36,17.36,0,0,1,6.81-6.57,22.3,22.3,0,0,1,20,0,17.36,17.36,0,0,1,6.81,6.57,20.23,20.23,0,0,1,0,19.3A17.46,17.46,0,0,1,239,320.6,20.38,20.38,0,0,1,229,323Zm-10.08-41.23a6.3,6.3,0,1,1,4.4-1.84A6,6,0,0,1,218.93,281.74ZM229,311.19a5.56,5.56,0,0,0,3.12-.88,6.26,6.26,0,0,0,2.13-2.42,8.29,8.29,0,0,0,0-7,6.17,6.17,0,0,0-2.16-2.42,5.86,5.86,0,0,0-3.23-.88,5.74,5.74,0,0,0-3.16.88,6.17,6.17,0,0,0-2.16,2.42,8.29,8.29,0,0,0,0,7,5.92,5.92,0,0,0,5.46,3.3Zm9.09-29.45a6.43,6.43,0,1,1,4.36-1.88A6,6,0,0,1,238.1,281.74Z"/><path class="cls-1" d="M250.16,322.12v-8.87l14.33-16.32H250.16V286.64h30.09v8.87L265.91,311.9h14.34v10.22Z"/><path class="cls-1" d="M308.85,323a25.86,25.86,0,0,1-13.17-3.3,23.78,23.78,0,0,1-9-9.08,28.7,28.7,0,0,1,0-26.61,23.81,23.81,0,0,1,9-9.09,27.94,27.94,0,0,1,23.53-1.31,23.72,23.72,0,0,1,8,5.54,24.75,24.75,0,0,1,5.11,8.23l-12.49,4a14.79,14.79,0,0,0-2.56-4.08,10.7,10.7,0,0,0-3.65-2.66,11.69,11.69,0,0,0-4.72-.92,11.16,11.16,0,0,0-6.18,1.74,11.93,11.93,0,0,0-4.22,4.79,15.62,15.62,0,0,0-1.52,7.09,15.41,15.41,0,0,0,1.56,7.06,12,12,0,0,0,4.29,4.83,11.42,11.42,0,0,0,6.28,1.74,11.06,11.06,0,0,0,4.79-1,10.17,10.17,0,0,0,3.48-2.7,17.62,17.62,0,0,0,2.52-4.08l12.49,4a24.25,24.25,0,0,1-5,8.27,23.45,23.45,0,0,1-8,5.57A26.53,26.53,0,0,1,308.85,323Z"/><path class="cls-1" d="M347.88,323q-6.18,0-9.62-2.8t-3.44-8.05q0-5.55,3.44-8.2t9.62-2.66h8.94a7.46,7.46,0,0,0-1.28-3.8c-.71-1-2-1.45-4-1.45a4.72,4.72,0,0,0-2.91.85,8.58,8.58,0,0,0-1.92,2L335.6,295.3a18.76,18.76,0,0,1,3.73-5,15.81,15.81,0,0,1,5.25-3.3,18.39,18.39,0,0,1,6.71-1.17,21.26,21.26,0,0,1,9.72,2,14.62,14.62,0,0,1,6.17,5.75,16.89,16.89,0,0,1,2.13,8.59v19.94h-12l-.14-3.12a9.77,9.77,0,0,1-3.94,3A13.84,13.84,0,0,1,347.88,323Zm3.33-8.94a6.74,6.74,0,0,0,3.06-.64,4.64,4.64,0,0,0,2-1.84,5.31,5.31,0,0,0,.71-2.77v-.21h-4a7.19,7.19,0,0,0-3.84.85,2.71,2.71,0,0,0-1.34,2.41,1.78,1.78,0,0,0,.92,1.63A4.84,4.84,0,0,0,351.21,314Z"/><path class="cls-1" d="M375.34,322.12V286.64h12.07l.49,4.33a11.21,11.21,0,0,1,9.65-5.18,13.64,13.64,0,0,1,7.24,1.74,10.17,10.17,0,0,1,4.19,5.35,12.82,12.82,0,0,1,4.51-5.28,11.3,11.3,0,0,1,6.28-1.81q6.53,0,9.65,3.9t3.12,12.13v20.3H419.77V304a10.58,10.58,0,0,0-.46-3.37,4.4,4.4,0,0,0-1.35-2,3.85,3.85,0,0,0-2.24-.78,5.08,5.08,0,0,0-4,1.21,5.81,5.81,0,0,0-1.35,4.25v18.88H397.55V304a10.3,10.3,0,0,0-.46-3.37,4.31,4.31,0,0,0-1.34-2,3.87,3.87,0,0,0-2.24-.78,5.12,5.12,0,0,0-4.05,1.21,5.85,5.85,0,0,0-1.34,4.25v18.88Z"/><path class="cls-1" d="M438.93,336.31V286.64H451l.43,4A10.87,10.87,0,0,1,455.5,287a12.41,12.41,0,0,1,5.71-1.24,16.13,16.13,0,0,1,8.62,2.2,14.12,14.12,0,0,1,5.5,6.35,27.13,27.13,0,0,1,0,20.05,14.09,14.09,0,0,1-5.5,6.38,16.13,16.13,0,0,1-8.62,2.2,12.22,12.22,0,0,1-5.53-1.17,11,11,0,0,1-4-3.37v17.88Zm18.87-25.12a5.57,5.57,0,0,0,3.13-.88,6.5,6.5,0,0,0,2.16-2.42,7.36,7.36,0,0,0,.82-3.51,7.59,7.59,0,0,0-.78-3.51,5.94,5.94,0,0,0-2.13-2.38,5.7,5.7,0,0,0-3.12-.85,6.08,6.08,0,0,0-3.2.85,5.82,5.82,0,0,0-2.2,2.38,8.29,8.29,0,0,0,0,7,6.12,6.12,0,0,0,2.17,2.42A5.7,5.7,0,0,0,457.8,311.19Z"/><path class="cls-1" d="M494.28,323a13.5,13.5,0,0,1-7.17-1.74,10.33,10.33,0,0,1-4.22-5.28,25.16,25.16,0,0,1-1.38-9V286.64h12.77v18.17a10.33,10.33,0,0,0,.46,3.33,4.38,4.38,0,0,0,1.35,2.06,3.85,3.85,0,0,0,2.24.78,5.27,5.27,0,0,0,4-1.28,5.69,5.69,0,0,0,1.35-4.18V286.64h12.77v35.48H504.43l-.5-4.33a11.77,11.77,0,0,1-4.19,3.83A11.21,11.21,0,0,1,494.28,323Z"/><path class="cls-1" d="M536.29,323a21.32,21.32,0,0,1-6.6-1,15.57,15.57,0,0,1-5.21-2.8,9.57,9.57,0,0,1-3-4.37l10.15-4a4,4,0,0,0,2.2,2.45,7.29,7.29,0,0,0,2.48.53,3.18,3.18,0,0,0,1.85-.5,1.63,1.63,0,0,0,.71-1.42,2,2,0,0,0-1-1.67,10.09,10.09,0,0,0-3.05-1.17l-2.91-.71a13,13,0,0,1-7.17-4.18,10.79,10.79,0,0,1-2.41-7,9.9,9.9,0,0,1,4-8.44q4-3,10.89-3a21,21,0,0,1,7.07,1,12.45,12.45,0,0,1,4.71,2.87,12.88,12.88,0,0,1,2.84,4.26L542,297.71a3.59,3.59,0,0,0-1.67-2.06,5.88,5.88,0,0,0-2.87-.64,2.82,2.82,0,0,0-1.88.57,1.6,1.6,0,0,0,.35,2.8,12.77,12.77,0,0,0,3.16,1.17l2.91.71a17.8,17.8,0,0,1,5.68,2.38,11.86,11.86,0,0,1,3.76,3.94,10.6,10.6,0,0,1,1.35,5.39,8.92,8.92,0,0,1-2.06,5.93,13,13,0,0,1-5.75,3.76A25.74,25.74,0,0,1,536.29,323Z"/><g id="Absztrakt_kitöltött" data-name="Absztrakt kitöltött"><path class="cls-1" d="M128.82,278.35c1.09,33.25.34,50.79-14.42,63.67-5.74,5-12.72,6.24-18.57,4.37,10.43-4,16.38-21.32,8.59-28.95a27.65,27.65,0,0,0-6.91-4.91c5.46-1.68,10.48-3.21,10.48-9.92,0-6.1-2.85-9.43-6.21-12.52a30.61,30.61,0,0,0,7.15-19.58c0-6.69-2.19-14.06-6.15-18.47a25,25,0,0,1,9.93-3.79C120.68,247.4,127.84,247.85,128.82,278.35Z"/><path class="cls-2" d="M102.78,252c4,4.41,6.15,11.78,6.15,18.47a30.61,30.61,0,0,1-7.15,19.58c-4.75-4.37-10.51-8.28-10.51-19C91.27,262.17,96.84,255.77,102.78,252Z"/><path class="cls-3" d="M104.42,317.44c7.79,7.63,1.84,25-8.59,28.95-6.78-2.14-12-8.45-12.07-17.75,0-11.8,7.18-14.08,13.75-16.11A27.65,27.65,0,0,1,104.42,317.44Z"/><path class="cls-4" d="M102.78,252c-5.94,3.73-11.51,10.13-11.51,19,0,10.72,5.76,14.63,10.51,19a20.13,20.13,0,0,1-12.42,6.8C81.81,298,78.87,294.94,75,294.42a47.13,47.13,0,0,1-4.41-15.06c3.62,0,6.86-.72,9.24-4.62,2.51-4.13-.74-9.23,2.58-17.93,2.14-5.62,6.63-8.76,12.12-8.76A11,11,0,0,1,102.78,252Z"/><path class="cls-5" d="M95.83,346.39a12,12,0,0,1-5.23.81c-11.83-.81-15.76-9.12-17.13-18.5-1.06-7.3-.57-15.26-1-20.84a37.23,37.23,0,0,0-2.92-12.29,9.15,9.15,0,0,1,1.89-.84,7.91,7.91,0,0,1,3.63-.31l.14.29c6.51,13.11,14.5,13.8,22.33,17.82-6.57,2-13.78,4.31-13.75,16.11C83.79,337.94,89.05,344.25,95.83,346.39Z"/><path class="cls-3" d="M75,294.42a7.91,7.91,0,0,0-3.63.31,9.15,9.15,0,0,0-1.89.84c-3.19-7.06-8.53-10.86-14.68-14.89,5-3,10.77-1.37,15.79-1.32A47.13,47.13,0,0,0,75,294.42Z"/><path class="cls-5" d="M54.68,249.46c18.78-5.86,17.4,8.2,16.64,12.3a57.9,57.9,0,0,0-.69,17.6c-5-.05-10.74-1.68-15.79,1.32l-3.16-2.07c-3.55-2.32-6.69-4.32-8.5-8.18C41.08,266,43.71,252.88,54.68,249.46Z"/><path class="cls-4" d="M70.56,328.77c1,6.41-1.51,13.46-10.61,16.94-13,5-16.8-10.09-17.4-19.73-.29-4.75,1.3-35.73,10.29-43.82a12.12,12.12,0,0,1,2-1.48c6.15,4,11.49,7.83,14.68,14.89-6.92,4.08-9,17.44-3.42,23.6A18.74,18.74,0,0,1,70.56,328.77Z"/></g></svg>